<mxfile host="app.diagrams.net" modified="2021-10-16T04:16:21.693Z" agent="5.0 (Windows NT 10.0; Win64; x64) AppleWebKit/537.36 (KHTML, like Gecko) Chrome/94.0.4606.81 Safari/537.36" etag="2svfrpBy2bfv-pvmfeuS" version="15.5.4" type="github">
  <diagram id="BGl8BFaHvvLllcXofhZC" name="Page-1">
    <mxGraphModel dx="1276" dy="556" grid="1" gridSize="10" guides="1" tooltips="1" connect="1" arrows="1" fold="1" page="1" pageScale="1" pageWidth="827" pageHeight="1169" math="0" shadow="0">
      <root>
        <mxCell id="0" />
        <mxCell id="1" parent="0" />
        <mxCell id="1LAcV-oBZt9VrNZSHQMf-2" value="&lt;b&gt;&lt;font style=&quot;font-size: 18px&quot;&gt;mian.js&lt;/font&gt;&lt;/b&gt;" style="rounded=1;whiteSpace=wrap;html=1;" vertex="1" parent="1">
          <mxGeometry x="455" y="230" width="125" height="60" as="geometry" />
        </mxCell>
        <mxCell id="1LAcV-oBZt9VrNZSHQMf-3" value="&lt;font style=&quot;font-size: 18px&quot;&gt;App.vue&lt;/font&gt;" style="rounded=1;whiteSpace=wrap;html=1;" vertex="1" parent="1">
          <mxGeometry x="455" y="330" width="125" height="60" as="geometry" />
        </mxCell>
        <mxCell id="1LAcV-oBZt9VrNZSHQMf-4" value="&lt;div&gt;&lt;font style=&quot;font-size: 18px&quot;&gt;&amp;lt;div id=&quot;app&quot;&amp;gt;&lt;/font&gt;&lt;/div&gt;&lt;div&gt;&lt;font size=&quot;3&quot;&gt;&amp;nbsp; &amp;nbsp; &amp;nbsp;&amp;lt;!-- 路由占位符&amp;nbsp; --&amp;gt;&lt;/font&gt;&lt;/div&gt;&lt;div&gt;&lt;font size=&quot;3&quot;&gt;&amp;nbsp; &amp;nbsp; &amp;nbsp;&amp;lt;router-view&amp;gt;&amp;lt;/router-view&amp;gt;&lt;/font&gt;&lt;/div&gt;&lt;div&gt;&lt;font size=&quot;3&quot;&gt;&amp;nbsp;&amp;lt;/div&amp;gt;&lt;/font&gt;&lt;/div&gt;" style="text;html=1;align=left;verticalAlign=middle;resizable=0;points=[];autosize=1;strokeColor=none;fillColor=none;" vertex="1" parent="1">
          <mxGeometry x="610" y="315" width="260" height="70" as="geometry" />
        </mxCell>
        <mxCell id="1LAcV-oBZt9VrNZSHQMf-5" value="&lt;span&gt;&lt;font style=&quot;font-size: 18px&quot;&gt;创建vue对象，&lt;br&gt;引入路由./route/index.js和App组件，&lt;br&gt;渲染到#app的html元素&lt;/font&gt;&lt;/span&gt;" style="text;html=1;align=left;verticalAlign=middle;resizable=0;points=[];autosize=1;strokeColor=none;fillColor=none;" vertex="1" parent="1">
          <mxGeometry x="610" y="230" width="330" height="50" as="geometry" />
        </mxCell>
        <mxCell id="1LAcV-oBZt9VrNZSHQMf-6" value="" style="rounded=1;whiteSpace=wrap;html=1;align=left;" vertex="1" parent="1">
          <mxGeometry x="455" y="420" width="125" height="60" as="geometry" />
        </mxCell>
        <mxCell id="1LAcV-oBZt9VrNZSHQMf-7" value="" style="rounded=1;whiteSpace=wrap;html=1;align=left;" vertex="1" parent="1">
          <mxGeometry x="280" y="300" width="120" height="60" as="geometry" />
        </mxCell>
      </root>
    </mxGraphModel>
  </diagram>
</mxfile>
